# xmcd CD database file
#
# Track frame offsets:
#	183
#	29733
#	62133
#	76233
#	93783
#	119733
#	135483
#	161433
#	177858
#
# Disc length: 2544 seconds
#
# Revision: 0
# Processed by: cddbd v1.4PL0 Copyright (c) Steve Scherf et al.
# Submitted via: CDex 1.50
#
DISCID=7109ee09
DTITLE=John Tchicai - Timo's Message
DYEAR=1987
DGENRE=Jazz
TTITLE0=Frisk Bagleans
TTITLE1=Mushi Miyake
TTITLE2=Homage a Tanguy
TTITLE3=Exercise 15
TTITLE4=Mothers
TTITLE5=Stella by Starlight
TTITLE6=Flying Belabirds
TTITLE7=The Struggule with the 7th
TTITLE8=Homage a Kay
EXTD=YEAR: 1987
EXTT0=
EXTT1=
EXTT2=
EXTT3=
EXTT4=
EXTT5=
EXTT6=
EXTT7=
EXTT8=
PLAYORDER=
